<svg version="1.1" xmlns="http://www.w3.org/2000/svg" viewBox="0 0 1023.2652442349221 750.9047072647829" width="2046.5304884698442" height="1501.8094145295659">
  <!-- svg-source:excalidraw -->
  
  <defs>
    <style class="style-fonts">
      @font-face {
        font-family: "Virgil";
        src: url("https://excalidraw.com/Virgil.woff2");
      }
      @font-face {
        font-family: "Cascadia";
        src: url("https://excalidraw.com/Cascadia.woff2");
      }
      @font-face {
        font-family: "Assistant";
        src: url("https://excalidraw.com/Assistant-Regular.woff2");
      }
    </style>
    
  </defs>
  <rect x="0" y="0" width="1023.2652442349221" height="750.9047072647829" fill="#ffffff"></rect><g stroke-linecap="round"><g transform="translate(275.90513885490407 531.2383277184822) rotate(0 -2.13671875 -229.1796875)"><path d="M0.1 -0.66 C-0.27 -76.94, -2.57 -381.77, -3.29 -458.12 M-1.3 1.6 C-1.65 -75.02, -3.12 -383.57, -3.71 -460.11" stroke="#1e1e1e" stroke-width="2" fill="none"></path></g><g transform="translate(275.90513885490407 531.2383277184822) rotate(0 -2.13671875 -229.1796875)"><path d="M4.98 -436.67 C2.12 -439.97, 1.79 -446.42, -3.71 -460.11 M4.98 -436.67 C2.35 -443.36, 1.31 -448.42, -3.71 -460.11" stroke="#1e1e1e" stroke-width="2" fill="none"></path></g><g transform="translate(275.90513885490407 531.2383277184822) rotate(0 -2.13671875 -229.1796875)"><path d="M-12.12 -436.57 C-11.36 -439.91, -8.08 -446.37, -3.71 -460.11 M-12.12 -436.57 C-10.18 -443.36, -6.66 -448.45, -3.71 -460.11" stroke="#1e1e1e" stroke-width="2" fill="none"></path></g></g><mask></mask><g stroke-linecap="round"><g transform="translate(275.30508075211003 530.3037781118908) rotate(0 324.96408414071107 -0.8730863331236947)"><path d="M-0.18 -0.74 C108.22 -1.16, 542.27 -1.88, 650.78 -2.03 M-1.73 1.49 C106.55 1.21, 541.55 -0.36, 650.28 -0.64" stroke="#1e1e1e" stroke-width="2" fill="none"></path></g><g transform="translate(275.30508075211003 530.3037781118908) rotate(0 324.96408414071107 -0.8730863331236947)"><path d="M626.82 7.99 C633.37 6.57, 641.95 3.89, 650.28 -0.64 M626.82 7.99 C634.65 5.86, 641.59 2.47, 650.28 -0.64" stroke="#1e1e1e" stroke-width="2" fill="none"></path></g><g transform="translate(275.30508075211003 530.3037781118908) rotate(0 324.96408414071107 -0.8730863331236947)"><path d="M626.76 -9.11 C633.4 -4.83, 642 -1.81, 650.28 -0.64 M626.76 -9.11 C634.73 -5.89, 641.69 -3.93, 650.28 -0.64" stroke="#1e1e1e" stroke-width="2" fill="none"></path></g></g><mask></mask><g transform="translate(30.948107604904067 55.71879646848214) rotate(0 102.86990356445312 62.5)"><text x="0" y="17.52" font-family="Virgil, Segoe UI Emoji" font-size="20px" fill="#1e1e1e" text-anchor="start" style="white-space: pre;" direction="ltr" dominant-baseline="alphabetic">PROMISE:</text><text x="0" y="42.519999999999996" font-family="Virgil, Segoe UI Emoji" font-size="20px" fill="#1e1e1e" text-anchor="start" style="white-space: pre;" direction="ltr" dominant-baseline="alphabetic"></text><text x="0" y="67.52" font-family="Virgil, Segoe UI Emoji" font-size="20px" fill="#1e1e1e" text-anchor="start" style="white-space: pre;" direction="ltr" dominant-baseline="alphabetic">% of "highly likely" </text><text x="0" y="92.52" font-family="Virgil, Segoe UI Emoji" font-size="20px" fill="#1e1e1e" text-anchor="start" style="white-space: pre;" direction="ltr" dominant-baseline="alphabetic">customers in vertical</text><text x="0" y="117.52" font-family="Virgil, Segoe UI Emoji" font-size="20px" fill="#1e1e1e" text-anchor="start" style="white-space: pre;" direction="ltr" dominant-baseline="alphabetic"> </text></g><g transform="translate(771.0821102904509 577.5312964684822) rotate(0 107.86990356445312 50)"><text x="0" y="17.52" font-family="Virgil, Segoe UI Emoji" font-size="20px" fill="#1e1e1e" text-anchor="start" style="white-space: pre;" direction="ltr" dominant-baseline="alphabetic">PENETRATION:</text><text x="0" y="42.519999999999996" font-family="Virgil, Segoe UI Emoji" font-size="20px" fill="#1e1e1e" text-anchor="start" style="white-space: pre;" direction="ltr" dominant-baseline="alphabetic"></text><text x="0" y="67.52" font-family="Virgil, Segoe UI Emoji" font-size="20px" fill="#1e1e1e" text-anchor="start" style="white-space: pre;" direction="ltr" dominant-baseline="alphabetic">% of existing </text><text x="0" y="92.52" font-family="Virgil, Segoe UI Emoji" font-size="20px" fill="#1e1e1e" text-anchor="start" style="white-space: pre;" direction="ltr" dominant-baseline="alphabetic">customers in vertical </text></g><g stroke-linecap="round"><g transform="translate(274.66295135490407 529.8359839684822) rotate(0 261.626953125 -197.001953125)"><path d="M-0.38 1 C86.69 -64.63, 435.52 -328.19, 522.97 -394.2" stroke="#1e1e1e" stroke-width="2.5" fill="none" stroke-dasharray="8 10"></path></g></g><mask></mask><g stroke-linecap="round" transform="translate(772.4442013549041 370.46879646848214) rotate(0 54.58203125 52.80859375)"><path d="M64.36 1.28 C72.99 1.87, 82.49 6.73, 89.31 12.21 C96.13 17.7, 102.2 25.75, 105.27 34.19 C108.34 42.63, 109.33 54.16, 107.74 62.86 C106.15 71.56, 101.61 79.64, 95.72 86.41 C89.83 93.18, 80.71 100.56, 72.38 103.48 C64.05 106.41, 54.55 105.54, 45.75 103.94 C36.94 102.35, 26.71 99.42, 19.54 93.93 C12.37 88.45, 5.95 79.46, 2.71 71.02 C-0.53 62.59, -1.59 52.02, 0.1 43.32 C1.8 34.62, 6.75 25.47, 12.87 18.84 C18.99 12.2, 27.35 6.4, 36.81 3.49 C46.28 0.59, 63.68 1.29, 69.65 1.4 C75.62 1.52, 72.89 3.21, 72.63 4.17 M69.14 0.48 C77.47 1.88, 85.72 9.4, 91.85 15.88 C97.99 22.37, 103.58 31.12, 105.95 39.41 C108.31 47.69, 108.28 57.29, 106.03 65.6 C103.79 73.9, 98.75 82.9, 92.47 89.25 C86.18 95.6, 77.1 101.35, 68.32 103.68 C59.55 106, 48.29 105.58, 39.83 103.2 C31.37 100.83, 24.05 95.62, 17.55 89.44 C11.06 83.25, 3.27 74.28, 0.86 66.09 C-1.56 57.89, 0.55 48.68, 3.06 40.27 C5.56 31.86, 9.83 22.06, 15.89 15.61 C21.95 9.17, 30.48 4.09, 39.43 1.59 C48.38 -0.91, 64.66 0.42, 69.59 0.62 C74.52 0.81, 69.55 1.47, 69.01 2.76" stroke="none" stroke-width="0" fill="#ffec99"></path><path d="M80.38 6.18 C88.15 9.72, 95.4 18.19, 100.14 25.69 C104.88 33.19, 108.33 42.61, 108.83 51.17 C109.33 59.72, 107.55 69.3, 103.15 77 C98.75 84.71, 90.17 92.53, 82.43 97.38 C74.69 102.23, 65.65 105.83, 56.73 106.11 C47.82 106.4, 37.17 103.32, 28.95 99.09 C20.72 94.86, 12.32 88.15, 7.4 80.74 C2.47 73.32, -0.42 63.4, -0.6 54.6 C-0.78 45.79, 1.8 35.55, 6.32 27.89 C10.83 20.23, 18.84 13.34, 26.51 8.64 C34.19 3.94, 42.75 -0.2, 52.37 -0.29 C61.99 -0.38, 78.56 6.16, 84.26 8.1 C89.96 10.04, 87.08 10.54, 86.57 11.37 M73.19 2.55 C81.62 4.92, 90.19 12.46, 96.25 19.22 C102.31 25.98, 107.85 34.66, 109.53 43.12 C111.2 51.59, 109.76 61.43, 106.3 70 C102.85 78.56, 95.69 88.59, 88.78 94.52 C81.88 100.46, 73.59 104.06, 64.87 105.6 C56.16 107.14, 45.19 106.98, 36.49 103.77 C27.79 100.55, 18.75 93.12, 12.68 86.31 C6.61 79.51, 1.49 71.34, 0.06 62.95 C-1.37 54.55, 0.65 44.57, 4.08 35.96 C7.51 27.34, 13.79 16.96, 20.63 11.25 C27.48 5.53, 36.55 3.18, 45.14 1.68 C53.73 0.18, 67.43 1.86, 72.18 2.24 C76.93 2.62, 73.82 2.96, 73.64 3.98" stroke="#1e1e1e" stroke-width="1" fill="none"></path></g><g transform="translate(797.2509307601008 403.43607547293163) rotate(0 29.679977416992188 19.99999999999997)"><text x="29.679977416992188" y="14.016" font-family="Virgil, Segoe UI Emoji" font-size="16px" fill="#1e1e1e" text-anchor="middle" style="white-space: pre;" direction="ltr" dominant-baseline="alphabetic">Vertical</text><text x="29.679977416992188" y="34.016" font-family="Virgil, Segoe UI Emoji" font-size="16px" fill="#1e1e1e" text-anchor="middle" style="white-space: pre;" direction="ltr" dominant-baseline="alphabetic">1</text></g><g stroke-linecap="round" transform="translate(368.28209197990407 82.77543709348214) rotate(0 88.740234375 85.052734375)"><path d="M80.01 0.31 C91.07 -1.9, 105.04 1.43, 116.66 5.07 C128.27 8.7, 140.77 14.51, 149.69 22.11 C158.61 29.71, 165.64 40.06, 170.18 50.68 C174.71 61.31, 177.01 74.08, 176.9 85.85 C176.79 97.63, 174.28 110.73, 169.53 121.33 C164.78 131.94, 157.52 141.99, 148.38 149.49 C139.24 156.99, 126.16 163.03, 114.68 166.34 C103.19 169.66, 91.38 170.77, 79.45 169.39 C67.53 168.02, 53.71 163.84, 43.12 158.09 C32.52 152.35, 22.85 144.43, 15.87 134.92 C8.88 125.41, 3.41 112.43, 1.2 101.01 C-1.02 89.6, -0.15 77.41, 2.6 66.42 C5.35 55.43, 10.5 44.36, 17.68 35.1 C24.87 25.83, 33.1 16.69, 45.69 10.83 C58.28 4.97, 83.27 1.12, 93.21 -0.06 C103.15 -1.24, 105.44 2.12, 105.32 3.73 M78.09 2.01 C89.08 -0.25, 103.85 1.03, 115.45 4.04 C127.05 7.05, 138.71 12.42, 147.71 20.07 C156.72 27.72, 164.55 39.38, 169.48 49.94 C174.4 60.5, 177.41 71.78, 177.26 83.43 C177.11 95.08, 173.44 109.19, 168.59 119.85 C163.73 130.52, 156.74 139.72, 148.16 147.44 C139.59 155.15, 128.27 162.41, 117.15 166.13 C106.03 169.85, 93.28 170.89, 81.45 169.77 C69.63 168.65, 56.83 164.92, 46.2 159.41 C35.56 153.91, 24.75 145.89, 17.64 136.74 C10.52 127.59, 5.92 115.94, 3.51 104.54 C1.1 93.13, 0.83 79.72, 3.2 68.3 C5.56 56.89, 10.97 45.68, 17.7 36.06 C24.44 26.45, 33.56 16.4, 43.6 10.62 C53.64 4.85, 71.97 2.63, 77.95 1.39 C83.93 0.16, 79.15 2.08, 79.5 3.2" stroke="none" stroke-width="0" fill="#ffec99"></path><path d="M58.4 4.46 C68.91 -0.32, 84.22 -0.77, 96.22 0.07 C108.21 0.9, 120.05 4.11, 130.34 9.45 C140.64 14.79, 150.67 22.98, 158 32.1 C165.33 41.23, 171.37 52.67, 174.34 64.19 C177.31 75.72, 177.84 89.94, 175.81 101.26 C173.79 112.58, 168.98 122.67, 162.19 132.1 C155.41 141.53, 145.28 151.55, 135.12 157.84 C124.95 164.13, 113.09 168.41, 101.21 169.83 C89.33 171.25, 75.44 169.66, 63.82 166.36 C52.2 163.07, 40.56 157.5, 31.51 150.03 C22.45 142.56, 14.7 131.85, 9.47 121.56 C4.24 111.28, 0.55 99.67, 0.12 88.32 C-0.3 76.96, 2.33 64.19, 6.92 53.42 C11.52 42.64, 18.47 31.98, 27.67 23.68 C36.87 15.38, 55.84 6.77, 62.12 3.62 C68.41 0.47, 64.85 3.24, 65.39 4.79 M109.51 1.53 C121.17 2.77, 134.51 11.28, 143.91 18.45 C153.32 25.62, 160.17 34.19, 165.94 44.57 C171.71 54.95, 177.69 69.23, 178.55 80.72 C179.4 92.21, 175.67 102.95, 171.07 113.51 C166.48 124.08, 159.05 135.6, 150.97 144.13 C142.88 152.66, 133.57 160.56, 122.58 164.68 C111.6 168.81, 97.27 169.51, 85.06 168.89 C72.86 168.27, 60.1 166.02, 49.34 160.97 C38.58 155.93, 28.28 147.61, 20.52 138.62 C12.76 129.63, 6.21 117.96, 2.77 107.02 C-0.66 96.09, -2.1 84.11, -0.1 73.01 C1.91 61.92, 8.32 50.46, 14.81 40.43 C21.3 30.4, 29.12 19.43, 38.85 12.84 C48.59 6.25, 61.34 2.82, 73.21 0.89 C85.08 -1.04, 104.09 0.49, 110.09 1.28 C116.09 2.08, 109.39 4.19, 109.22 5.66" stroke="#1e1e1e" stroke-width="1" fill="none"></path></g><g transform="translate(417.39752830175803 157.68680623346145) rotate(0 39.3759765625 10)"><text x="39.3759765625" y="14.016" font-family="Virgil, Segoe UI Emoji" font-size="16px" fill="#1e1e1e" text-anchor="middle" style="white-space: pre;" direction="ltr" dominant-baseline="alphabetic">Vertical 2</text></g><g stroke-linecap="round" transform="translate(401.58677947990407 419.22465584348214) rotate(0 50.1796875 44.34765625)"><path d="M32.39 2.13 C40.14 -1.1, 52.13 -1.52, 60.85 0.32 C69.57 2.17, 78.42 7.34, 84.7 13.2 C90.99 19.06, 96.49 27.71, 98.58 35.49 C100.66 43.28, 100.35 52.51, 97.21 59.88 C94.08 67.25, 87.04 74.85, 79.78 79.72 C72.52 84.58, 62.68 88.48, 53.67 89.07 C44.67 89.67, 33.75 87.23, 25.75 83.29 C17.76 79.35, 9.96 72.27, 5.68 65.42 C1.4 58.57, -0.73 50.12, 0.06 42.18 C0.84 34.24, 4.84 24.59, 10.41 17.77 C15.98 10.95, 29.14 3.83, 33.48 1.27 C37.81 -1.28, 36 1.59, 36.43 2.46 M65.96 2.85 C74.32 4.75, 84.19 11.32, 90.11 17.55 C96.02 23.77, 100.87 32.23, 101.43 40.2 C101.99 48.17, 98.05 58.53, 93.47 65.37 C88.89 72.21, 81.44 77.39, 73.93 81.26 C66.42 85.13, 57.02 88.57, 48.41 88.61 C39.8 88.64, 29.81 86.02, 22.26 81.47 C14.71 76.92, 6.49 68.87, 3.09 61.29 C-0.3 53.71, 0.32 43.96, 1.91 36 C3.49 28.04, 6.33 19.16, 12.59 13.53 C18.86 7.89, 30.26 4.29, 39.48 2.21 C48.7 0.13, 63.64 0.95, 67.92 1.03 C72.21 1.11, 65.8 1.87, 65.19 2.66" stroke="none" stroke-width="0" fill="#ffec99"></path><path d="M46.18 -0.51 C54.41 -1.85, 64.56 0.34, 72.4 4.03 C80.25 7.72, 88.43 14.58, 93.23 21.63 C98.03 28.68, 101.61 38.26, 101.19 46.34 C100.77 54.41, 96.28 63.53, 90.73 70.09 C85.17 76.65, 76.11 82.58, 67.85 85.7 C59.58 88.81, 50.03 90.42, 41.13 88.76 C32.23 87.1, 20.96 81.58, 14.45 75.73 C7.95 69.88, 3.98 61.36, 2.11 53.68 C0.25 46, 0.54 36.94, 3.28 29.67 C6.02 22.41, 10.06 14.92, 18.55 10.09 C27.03 5.25, 46.58 1.78, 54.19 0.67 C61.8 -0.44, 64.36 2.69, 64.21 3.45 M62.6 0.06 C71.24 1.03, 81.89 7.05, 87.88 13.06 C93.88 19.08, 97.13 28.01, 98.55 36.15 C99.97 44.3, 99.35 54.51, 96.39 61.93 C93.43 69.35, 87.9 76.45, 80.79 80.69 C73.68 84.92, 63.05 86.89, 53.73 87.36 C44.41 87.82, 32.97 87.29, 24.86 83.46 C16.75 79.64, 8.96 71.68, 5.08 64.4 C1.21 57.12, 0.91 47.51, 1.61 39.81 C2.3 32.1, 3.73 24.59, 9.23 18.19 C14.74 11.79, 26.06 4.15, 34.64 1.42 C43.21 -1.31, 56.33 1.71, 60.69 1.83 C65.06 1.95, 61.07 1.56, 60.84 2.15" stroke="#1e1e1e" stroke-width="1" fill="none"></path></g><g transform="translate(422.10409225384 443.71378362937725) rotate(0 29.679977416992188 20)"><text x="29.679977416992188" y="14.016" font-family="Virgil, Segoe UI Emoji" font-size="16px" fill="#1e1e1e" text-anchor="middle" style="white-space: pre;" direction="ltr" dominant-baseline="alphabetic">Vertical</text><text x="29.679977416992188" y="34.016" font-family="Virgil, Segoe UI Emoji" font-size="16px" fill="#1e1e1e" text-anchor="middle" style="white-space: pre;" direction="ltr" dominant-baseline="alphabetic">3</text></g><g stroke-linecap="round" transform="translate(490.41295135490407 296.45317146848214) rotate(0 55.376953125 50.83984375)"><path d="M37.72 2.04 C45.61 -1.02, 57.7 -0.97, 66.69 0.88 C75.68 2.73, 84.87 7.41, 91.64 13.14 C98.41 18.87, 104.17 27.33, 107.3 35.27 C110.44 43.22, 112.16 52.45, 110.44 60.81 C108.71 69.18, 103.19 79.01, 96.94 85.46 C90.68 91.91, 81.78 96.91, 72.9 99.52 C64.02 102.12, 52.63 103.06, 43.64 101.08 C34.66 99.1, 25.74 93.53, 18.98 87.61 C12.22 81.7, 5.97 73.5, 3.08 65.58 C0.2 57.65, -0.29 48.2, 1.66 40.08 C3.62 31.96, 8.26 23.19, 14.81 16.84 C21.35 10.5, 36.05 4.32, 40.92 2.01 C45.79 -0.3, 43.75 2.16, 44.02 2.97 M82.1 7.14 C90.06 10.07, 96.48 15.97, 101.4 22.77 C106.31 29.57, 111.17 39.4, 111.6 47.92 C112.02 56.44, 108.19 66.37, 103.93 73.91 C99.66 81.45, 93.88 88.39, 86 93.17 C78.11 97.95, 66.09 102.14, 56.63 102.58 C47.17 103.01, 37.31 100, 29.23 95.76 C21.16 91.52, 13.13 84.36, 8.19 77.13 C3.24 69.9, -0.06 60.96, -0.43 52.39 C-0.79 43.83, 1.47 33.31, 6 25.74 C10.54 18.17, 18.67 11.41, 26.78 6.98 C34.9 2.56, 45.63 -0.69, 54.69 -0.82 C63.76 -0.96, 76.61 4.78, 81.16 6.17 C85.71 7.57, 82.54 6.68, 81.98 7.53" stroke="none" stroke-width="0" fill="#ffec99"></path><path d="M71.08 2.19 C79.89 3.78, 90.02 9.72, 96.48 15.96 C102.94 22.19, 107.96 31.31, 109.84 39.59 C111.73 47.87, 110.72 57.47, 107.78 65.62 C104.85 73.77, 98.81 82.77, 92.23 88.49 C85.66 94.21, 77.32 98.16, 68.33 99.95 C59.34 101.74, 47.09 101.65, 38.29 99.22 C29.5 96.78, 21.65 91.6, 15.54 85.35 C9.43 79.1, 3.8 69.86, 1.62 61.73 C-0.56 53.6, -0.33 44.56, 2.45 36.57 C5.23 28.57, 11.4 19.76, 18.31 13.76 C25.22 7.75, 34.62 2.34, 43.9 0.53 C53.18 -1.29, 68.98 2.33, 73.97 2.84 C78.96 3.35, 74.21 2.64, 73.84 3.57 M71.5 3.04 C80.01 4.18, 89.06 8.61, 95.5 14.66 C101.95 20.71, 108.02 30.86, 110.17 39.32 C112.32 47.78, 110.97 57.33, 108.42 65.43 C105.86 73.52, 101.24 82.22, 94.82 87.89 C88.4 93.55, 79.23 97.2, 69.88 99.4 C60.54 101.59, 47.94 103.17, 38.76 101.06 C29.57 98.94, 20.71 92.91, 14.77 86.72 C8.84 80.54, 5.35 72.33, 3.15 63.94 C0.94 55.56, -0.91 44.68, 1.53 36.41 C3.98 28.14, 11 20.07, 17.81 14.31 C24.63 8.55, 33.52 3.97, 42.42 1.84 C51.32 -0.28, 66.67 1.48, 71.21 1.58 C75.75 1.67, 70.01 1.4, 69.66 2.43" stroke="#1e1e1e" stroke-width="1" fill="none"></path></g><g transform="translate(511.9525079867748 327.3438169483926) rotate(0 33.67997741699219 20)"><text x="33.67997741699219" y="14.016" font-family="Virgil, Segoe UI Emoji" font-size="16px" fill="#1e1e1e" text-anchor="middle" style="white-space: pre;" direction="ltr" dominant-baseline="alphabetic">Vertical </text><text x="33.67997741699219" y="34.016" font-family="Virgil, Segoe UI Emoji" font-size="16px" fill="#1e1e1e" text-anchor="middle" style="white-space: pre;" direction="ltr" dominant-baseline="alphabetic">4</text></g><g stroke-linecap="round" transform="translate(647.3211544799041 190.04692146848214) rotate(0 49.5625 43.59765625)"><path d="M25.52 4.44 C32.49 0.46, 44.01 -0.7, 52.98 0.1 C61.95 0.9, 72.28 4.54, 79.34 9.21 C86.39 13.89, 92.3 21, 95.3 28.13 C98.31 35.27, 99.09 44.42, 97.38 52.05 C95.67 59.68, 91.36 68.1, 85.05 73.92 C78.73 79.73, 68.36 85.31, 59.48 86.94 C50.6 88.57, 40.19 86.64, 31.76 83.69 C23.32 80.73, 14.09 75.52, 8.88 69.23 C3.67 62.94, 1.11 53.82, 0.51 45.95 C-0.09 38.08, -0.65 29.3, 5.28 22.01 C11.21 14.72, 28.91 5.66, 36.09 2.21 C43.26 -1.25, 47.86 0.6, 48.33 1.27 M61.41 0.81 C69.63 1.63, 77.64 5.99, 83.74 11.69 C89.83 17.39, 96.04 27.05, 97.97 35.01 C99.91 42.97, 98.21 52.34, 95.34 59.44 C92.47 66.55, 87.55 72.88, 80.75 77.63 C73.96 82.38, 63.97 87.17, 54.57 87.94 C45.18 88.7, 32.6 86.21, 24.38 82.23 C16.17 78.25, 9.25 71.11, 5.3 64.05 C1.34 56.99, 0.04 47.78, 0.66 39.89 C1.28 32, 3.97 22.8, 9.02 16.71 C14.07 10.63, 22.29 5.9, 30.97 3.37 C39.65 0.85, 56.1 1.58, 61.09 1.55 C66.08 1.52, 61.36 2.43, 60.91 3.18" stroke="none" stroke-width="0" fill="#ffec99"></path><path d="M50.75 1.02 C59.11 0.74, 70.29 4.33, 77.76 8.74 C85.24 13.15, 92.26 20.49, 95.59 27.49 C98.92 34.48, 99.32 43.04, 97.76 50.72 C96.19 58.4, 92.32 67.65, 86.2 73.59 C80.08 79.53, 69.76 84.52, 61.04 86.35 C52.32 88.18, 42.25 87.08, 33.89 84.58 C25.53 82.07, 16.46 77.58, 10.91 71.33 C5.35 65.08, 1.57 55.1, 0.54 47.08 C-0.48 39.06, 0.76 30.1, 4.76 23.2 C8.75 16.3, 15.79 9.53, 24.5 5.68 C33.22 1.83, 50.83 0.72, 57.04 0.08 C63.25 -0.55, 61.75 1.02, 61.76 1.85 M67.99 4.7 C75.91 6.69, 84.93 11.92, 90.17 18.24 C95.41 24.56, 99.33 34.66, 99.44 42.61 C99.54 50.56, 95.44 59.26, 90.8 65.93 C86.15 72.6, 79.6 79.26, 71.57 82.64 C63.54 86.01, 51.43 87.04, 42.6 86.17 C33.78 85.3, 25.49 82.54, 18.62 77.41 C11.76 72.28, 4.07 62.95, 1.42 55.4 C-1.24 47.86, 0.35 39.4, 2.7 32.14 C5.05 24.88, 8.86 16.98, 15.51 11.82 C22.15 6.66, 33.86 2.54, 42.58 1.18 C51.29 -0.19, 63.51 3.14, 67.8 3.63 C72.09 4.12, 68.33 3.37, 68.33 4.13" stroke="#1e1e1e" stroke-width="1" fill="none"></path></g><g transform="translate(667.1576972203536 213.81637934026708) rotate(0 29.679977416992188 20)"><text x="29.679977416992188" y="14.016" font-family="Virgil, Segoe UI Emoji" font-size="16px" fill="#1e1e1e" text-anchor="middle" style="white-space: pre;" direction="ltr" dominant-baseline="alphabetic">Vertical</text><text x="29.679977416992188" y="34.016" font-family="Virgil, Segoe UI Emoji" font-size="16px" fill="#1e1e1e" text-anchor="middle" style="white-space: pre;" direction="ltr" dominant-baseline="alphabetic">5</text></g><g transform="translate(245.82666610602837 542.7256262228325) rotate(0 13.0159912109375 10)"><text x="0" y="14.016" font-family="Virgil, Segoe UI Emoji" font-size="16px" fill="#1e1e1e" text-anchor="start" style="white-space: pre;" direction="ltr" dominant-baseline="alphabetic">0%</text></g><g transform="translate(209.17821014396657 57.09379646848214) rotate(0 20.68798828125 10)"><text x="0" y="14.016" font-family="Virgil, Segoe UI Emoji" font-size="16px" fill="#1e1e1e" text-anchor="start" style="white-space: pre;" direction="ltr" dominant-baseline="alphabetic">100%</text></g><g transform="translate(901.4007443236541 543.9102027184822) rotate(0 20.68798828125 10)"><text x="0" y="14.016" font-family="Virgil, Segoe UI Emoji" font-size="16px" fill="#1e1e1e" text-anchor="start" style="white-space: pre;" direction="ltr" dominant-baseline="alphabetic">100%</text></g><g stroke-linecap="round" transform="translate(10 10) rotate(0 501.63262211746104 341.5005871152059)"><path d="M0 0 C205.28 3.4, 409.49 3.04, 1003.27 0 M0 0 C279.33 -2.05, 557.88 -2.76, 1003.27 0 M1003.27 0 C1003.96 207.71, 1004.66 414.82, 1003.27 683 M1003.27 0 C1005.88 209.71, 1005.64 419.01, 1003.27 683 M1003.27 683 C715.97 685.13, 429.95 685.62, 0 683 M1003.27 683 C668.58 686, 333.16 686.53, 0 683 M0 683 C-1.83 533.03, -0.9 383.68, 0 0 M0 683 C2.22 539.75, 2.08 396.81, 0 0" stroke="#1e1e1e" stroke-width="1" fill="none"></path></g><g transform="translate(359.5192030587274 705.9047072647829) rotate(0 141.9039306640625 17.5)"><text x="0" y="24.528" font-family="Virgil, Segoe UI Emoji" font-size="28px" fill="#1e1e1e" text-anchor="start" style="white-space: pre;" direction="ltr" dominant-baseline="alphabetic">Mapping Your Market</text></g><g stroke-linecap="round"><g transform="translate(628.2206433716219 92.2548891192721) rotate(0 -44.05661933352508 13.314014714442607)"><path d="M0 0 C-35.95 11.49, -69.5 21.22, -88.11 26.63 M0 0 C-33.16 10.33, -65.49 20.15, -88.11 26.63" stroke="#1e1e1e" stroke-width="1" fill="none"></path></g><g transform="translate(628.2206433716219 92.2548891192721) rotate(0 -44.05661933352508 13.314014714442607)"><path d="M-67.97 11.82 C-76.86 18.94, -83.3 23.96, -88.11 26.63 M-67.97 11.82 C-75.5 17.69, -82.16 23.04, -88.11 26.63" stroke="#1e1e1e" stroke-width="1" fill="none"></path></g><g transform="translate(628.2206433716219 92.2548891192721) rotate(0 -44.05661933352508 13.314014714442607)"><path d="M-63.16 28.23 C-74.04 28.79, -82.4 27.25, -88.11 26.63 M-63.16 28.23 C-72.56 27.91, -81.04 27.06, -88.11 26.63" stroke="#1e1e1e" stroke-width="1" fill="none"></path></g></g><mask></mask><g transform="translate(638.3995257108863 74.25419476660699) rotate(0 68.43197631835938 17.5)"><text x="0" y="24.528" font-family="Virgil, Segoe UI Emoji" font-size="28px" fill="#1e1e1e" text-anchor="start" style="white-space: pre;" direction="ltr" dominant-baseline="alphabetic">GO HERE!</text></g><g stroke-linecap="round" transform="translate(48.385920044699304 611.565538680712) rotate(0 16.645951019741403 17.684892697355224)"><path d="M15.97 -0.46 C19.4 -0.77, 24.49 1.78, 27.32 4.22 C30.15 6.66, 32.3 10.59, 32.95 14.18 C33.59 17.78, 32.84 22.39, 31.21 25.79 C29.57 29.18, 26.53 33.13, 23.14 34.56 C19.75 35.98, 14.23 35.59, 10.86 34.32 C7.5 33.05, 4.8 30.18, 2.94 26.92 C1.08 23.66, -0.73 18.56, -0.31 14.78 C0.12 11, 2.67 6.64, 5.49 4.25 C8.31 1.86, 14.67 1.07, 16.61 0.45 C18.55 -0.18, 17.08 0.24, 17.13 0.51 M20.48 0.54 C23.77 1.04, 27.57 3.98, 29.74 7.14 C31.91 10.31, 33.59 15.78, 33.53 19.52 C33.47 23.26, 31.84 26.84, 29.4 29.58 C26.96 32.33, 22.45 35.47, 18.89 35.99 C15.33 36.51, 10.96 34.94, 8.05 32.69 C5.13 30.45, 2.57 26.26, 1.39 22.51 C0.21 18.76, -0.24 13.59, 0.97 10.18 C2.17 6.77, 5.43 3.73, 8.62 2.08 C11.8 0.42, 18.03 0.51, 20.09 0.25 C22.15 -0.01, 20.85 0.14, 20.96 0.54" stroke="none" stroke-width="0" fill="#ffec99"></path><path d="M14.69 0.37 C17.95 -0.16, 23 0.92, 26.05 3.12 C29.11 5.32, 32.08 9.9, 33.02 13.59 C33.97 17.28, 33.31 21.85, 31.71 25.26 C30.1 28.67, 26.66 32.53, 23.38 34.04 C20.11 35.54, 15.47 35.34, 12.07 34.3 C8.68 33.26, 5.04 30.79, 3.03 27.81 C1.02 24.83, -0.23 20.13, 0.03 16.41 C0.3 12.69, 2.03 8.25, 4.6 5.51 C7.18 2.76, 13.62 0.87, 15.5 -0.06 C17.39 -0.99, 15.94 -0.4, 15.92 -0.07 M15.98 0.58 C19.39 0.35, 23.73 1.95, 26.49 4.24 C29.25 6.53, 31.74 10.65, 32.54 14.32 C33.34 17.99, 32.89 22.89, 31.29 26.23 C29.69 29.58, 26.16 33.01, 22.95 34.37 C19.74 35.74, 15.33 35.65, 12.01 34.41 C8.69 33.17, 5.09 30.05, 3.06 26.94 C1.02 23.84, -0.57 19.41, -0.2 15.8 C0.18 12.2, 2.71 7.89, 5.32 5.3 C7.93 2.72, 13.7 1.03, 15.48 0.31 C17.25 -0.4, 15.9 0.83, 15.99 1.01" stroke="#1e1e1e" stroke-width="1" fill="none"></path></g><g transform="translate(95.49986554847078 609.3489167354519) rotate(0 70.0319595336914 20)"><text x="0" y="14.016" font-family="Virgil, Segoe UI Emoji" font-size="16px" fill="#1e1e1e" text-anchor="start" style="white-space: pre;" direction="ltr" dominant-baseline="alphabetic">bubble size </text><text x="0" y="34.016" font-family="Virgil, Segoe UI Emoji" font-size="16px" fill="#1e1e1e" text-anchor="start" style="white-space: pre;" direction="ltr" dominant-baseline="alphabetic">= size of vertical</text></g></svg>