<svg version="1.1" xmlns="http://www.w3.org/2000/svg" viewBox="0 0 1073.0612794884366 715.3183539616845" width="2146.1225589768733" height="1430.636707923369">
  <!-- svg-source:excalidraw -->
  
  <defs>
    <style class="style-fonts">
      @font-face {
        font-family: "Virgil";
        src: url("https://excalidraw.com/Virgil.woff2");
      }
      @font-face {
        font-family: "Cascadia";
        src: url("https://excalidraw.com/Cascadia.woff2");
      }
      @font-face {
        font-family: "Assistant";
        src: url("https://excalidraw.com/Assistant-Regular.woff2");
      }
    </style>
    
  </defs>
  <rect x="0" y="0" width="1073.0612794884366" height="715.3183539616845" fill="#ffffff"></rect><g stroke-linecap="round"><g transform="translate(502.4806418329308 45.40921096293346) rotate(0 -0.09307034797916458 286.6734168104641)"><path d="M-0.22 0.01 C-0.51 95.69, -0.66 477.32, -0.68 573.02 M-1.79 -1.03 C-1.8 94.92, 1.54 478.81, 1.61 574.37" stroke="#1e1e1e" stroke-width="2" fill="none"></path></g><g transform="translate(502.4806418329308 45.40921096293346) rotate(0 -0.09307034797916458 286.6734168104641)"><path d="M8.31 23.51 C5.22 13.04, 1.29 4.45, -0.22 0.01 M8.31 23.51 C5.01 15.46, 1.21 5.45, -0.22 0.01" stroke="#1e1e1e" stroke-width="2" fill="none"></path></g><g transform="translate(502.4806418329308 45.40921096293346) rotate(0 -0.09307034797916458 286.6734168104641)"><path d="M-8.79 23.5 C-5.24 13.06, -2.52 4.48, -0.22 0.01 M-8.79 23.5 C-5.74 15.32, -3.19 5.32, -0.22 0.01" stroke="#1e1e1e" stroke-width="2" fill="none"></path></g><g transform="translate(502.4806418329308 45.40921096293346) rotate(0 -0.09307034797916458 286.6734168104641)"><path d="M-7.06 550.92 C-3.88 558.72, -1.13 568.36, 1.61 574.37 M-7.06 550.92 C-4.35 560.17, -1.76 567.59, 1.61 574.37" stroke="#1e1e1e" stroke-width="2" fill="none"></path></g><g transform="translate(502.4806418329308 45.40921096293346) rotate(0 -0.09307034797916458 286.6734168104641)"><path d="M10.04 550.84 C6.58 558.63, 2.69 568.31, 1.61 574.37 M10.04 550.84 C6.4 560.24, 2.64 567.69, 1.61 574.37" stroke="#1e1e1e" stroke-width="2" fill="none"></path></g></g><mask></mask><g stroke-linecap="round"><g transform="translate(48.29470048461252 301.46855685884304) rotate(0 485.0305359100639 -1.4380218517035246)"><path d="M0.36 0.63 C162.31 0.24, 809.55 -2.71, 970.97 -3.51 M-0.91 -0.08 C161.03 -0.19, 808.52 -1.59, 970.54 -2.12" stroke="#1e1e1e" stroke-width="2" fill="none"></path></g><g transform="translate(48.29470048461252 301.46855685884304) rotate(0 485.0305359100639 -1.4380218517035246)"><path d="M23.82 -8.01 C19.13 -4.21, 11.94 -5.6, 0.36 0.63 M23.82 -8.01 C18.61 -6.01, 14.12 -4.72, 0.36 0.63" stroke="#1e1e1e" stroke-width="2" fill="none"></path></g><g transform="translate(48.29470048461252 301.46855685884304) rotate(0 485.0305359100639 -1.4380218517035246)"><path d="M23.89 9.09 C19.35 8.77, 12.14 3.25, 0.36 0.63 M23.89 9.09 C18.77 7.25, 14.27 4.69, 0.36 0.63" stroke="#1e1e1e" stroke-width="2" fill="none"></path></g><g transform="translate(48.29470048461252 301.46855685884304) rotate(0 485.0305359100639 -1.4380218517035246)"><path d="M947.07 6.49 C953.87 5.99, 958.01 0.44, 970.54 -2.12 M947.07 6.49 C952.52 4.9, 958.57 2.3, 970.54 -2.12" stroke="#1e1e1e" stroke-width="2" fill="none"></path></g><g transform="translate(48.29470048461252 301.46855685884304) rotate(0 485.0305359100639 -1.4380218517035246)"><path d="M947.03 -10.61 C953.68 -6.98, 957.83 -8.41, 970.54 -2.12 M947.03 -10.61 C952.37 -8.36, 958.44 -7.11, 970.54 -2.12" stroke="#1e1e1e" stroke-width="2" fill="none"></path></g></g><mask></mask><g transform="translate(26.3279281626439 248.47029258058524) rotate(0 76.14596557617188 17.5)"><text x="0" y="24.528" font-family="Virgil, Segoe UI Emoji" font-size="28px" fill="#1e1e1e" text-anchor="start" style="white-space: pre;" direction="ltr" dominant-baseline="alphabetic">Big Picture</text></g><g transform="translate(926.6897687024225 243.79919953198544) rotate(0 58.197975158691406 17.5)"><text x="0" y="24.528" font-family="Virgil, Segoe UI Emoji" font-size="28px" fill="#1e1e1e" text-anchor="start" style="white-space: pre;" direction="ltr" dominant-baseline="alphabetic">Detailed</text></g><g transform="translate(530.3989615350793 603.15281683992) rotate(0 32.885986328125 17.5)"><text x="0" y="24.528" font-family="Virgil, Segoe UI Emoji" font-size="28px" fill="#1e1e1e" text-anchor="start" style="white-space: pre;" direction="ltr" dominant-baseline="alphabetic">Fast</text></g><g transform="translate(521.9106802850793 32.85416930672693) rotate(0 28.475982666015625 17.5)"><text x="0" y="24.528" font-family="Virgil, Segoe UI Emoji" font-size="28px" fill="#1e1e1e" text-anchor="start" style="white-space: pre;" direction="ltr" dominant-baseline="alphabetic">Slow</text></g><g transform="translate(173.2688557592271 144.52594963109308) rotate(0 118.79989624023438 12.500000000000014)"><text x="0" y="17.52" font-family="Virgil, Segoe UI Emoji" font-size="20px" fill="#1971c2" text-anchor="start" style="white-space: pre;" direction="ltr" dominant-baseline="alphabetic">Current User Interviews</text></g><g transform="translate(88.43716730042888 89.34588693555884) rotate(0 143.77987670898438 12.5)"><text x="0" y="17.52" font-family="Virgil, Segoe UI Emoji" font-size="20px" fill="#1971c2" text-anchor="start" style="white-space: pre;" direction="ltr" dominant-baseline="alphabetic">Qualitative Market Research</text></g><g transform="translate(316.13376191610973 206.49498540747402) rotate(0 62.07994079589844 12.5)"><text x="0" y="17.52" font-family="Virgil, Segoe UI Emoji" font-size="20px" fill="#1971c2" text-anchor="start" style="white-space: pre;" direction="ltr" dominant-baseline="alphabetic">Exit Surveys</text></g><g transform="translate(357.9690146356652 252.52249221293346) rotate(0 113.22990417480469 12.5)"><text x="0" y="17.52" font-family="Virgil, Segoe UI Emoji" font-size="20px" fill="#1971c2" text-anchor="start" style="white-space: pre;" direction="ltr" dominant-baseline="alphabetic">User Feedback Surveys</text></g><g transform="translate(396.2267355829308 313.85061721293346) rotate(0 184.2498321533203 25)"><text x="0" y="17.52" font-family="Virgil, Segoe UI Emoji" font-size="20px" fill="#1971c2" text-anchor="start" style="white-space: pre;" direction="ltr" dominant-baseline="alphabetic">Ongoing Market Segmentation Surveys</text><text x="0" y="42.519999999999996" font-family="Virgil, Segoe UI Emoji" font-size="20px" fill="#1971c2" text-anchor="start" style="white-space: pre;" direction="ltr" dominant-baseline="alphabetic">(Conjoint/MaxDiff)</text></g><g transform="translate(621.651484635231 465.3501775177888) rotate(0 134.58988952636724 12.5)"><text x="0" y="17.52" font-family="Virgil, Segoe UI Emoji" font-size="20px" fill="#1971c2" text-anchor="start" style="white-space: pre;" direction="ltr" dominant-baseline="alphabetic">Attribution -&gt; LTV Analysis</text></g><g transform="translate(770.3835564367761 534.5873101131918) rotate(0 115.389907836914 25)"><text x="0" y="17.52" font-family="Virgil, Segoe UI Emoji" font-size="20px" fill="#1971c2" text-anchor="start" style="white-space: pre;" direction="ltr" dominant-baseline="alphabetic">Reinforcement Learning </text><text x="0" y="42.519999999999996" font-family="Virgil, Segoe UI Emoji" font-size="20px" fill="#1971c2" text-anchor="start" style="white-space: pre;" direction="ltr" dominant-baseline="alphabetic">From Market Behavior</text></g><g transform="translate(517.3606034252255 396.0182026959473) rotate(0 243.12979125976562 12.5)"><text x="0" y="17.52" font-family="Virgil, Segoe UI Emoji" font-size="20px" fill="#1971c2" text-anchor="start" style="white-space: pre;" direction="ltr" dominant-baseline="alphabetic">Cross-sectional demand (location, vertical, media)</text></g><g stroke-linecap="round" transform="translate(10 10) rotate(0 526.5306397442183 320.45180998438246)"><path d="M0 0 C378.62 2.68, 756.96 1.32, 1053.06 0 M0 0 C358.78 3.96, 717.94 3.76, 1053.06 0 M1053.06 0 C1053.78 198.37, 1054.05 398.02, 1053.06 640.9 M1053.06 0 C1054.58 173.49, 1054.99 347.54, 1053.06 640.9 M1053.06 640.9 C837.32 642.78, 621.63 643.64, 0 640.9 M1053.06 640.9 C712.09 644.38, 371.48 644.24, 0 640.9 M0 640.9 C0.74 508.29, 0.75 375.72, 0 0 M0 640.9 C0.01 503.59, 0.35 365.42, 0 0" stroke="#1e1e1e" stroke-width="2" fill="none"></path></g><g transform="translate(288.42466962169885 670.3183539616845) rotate(0 219.701904296875 17.5)"><text x="0" y="24.528" font-family="Virgil, Segoe UI Emoji" font-size="28px" fill="#1e1e1e" text-anchor="start" style="white-space: pre;" direction="ltr" dominant-baseline="alphabetic">Methods of Seeing Where to Go</text></g><g stroke-linecap="round" transform="translate(40.34951118566249 56.29969422164649) rotate(0 215.5149087452257 68.57140826770713)"><path d="M155.5 3.2 C173.97 0.16, 199.21 -0.58, 220.39 -0.4 C241.56 -0.22, 262.48 2.1, 282.55 4.27 C302.61 6.43, 323.53 8.8, 340.77 12.57 C358.02 16.35, 373.18 21.63, 386.02 26.92 C398.87 32.21, 410.23 37.96, 417.84 44.29 C425.44 50.63, 430.45 57.99, 431.66 64.94 C432.86 71.89, 430.2 79.46, 425.06 86.02 C419.92 92.58, 411.86 98.66, 400.82 104.3 C389.79 109.94, 374.83 115.45, 358.84 119.86 C342.85 124.27, 323.98 127.94, 304.9 130.74 C285.82 133.54, 265.4 135.85, 244.35 136.64 C223.29 137.44, 199.54 136.76, 178.59 135.5 C157.64 134.25, 137.48 132.09, 118.62 129.11 C99.77 126.12, 80.63 122.29, 65.47 117.59 C50.3 112.89, 37.93 106.63, 27.65 100.93 C17.37 95.24, 8.36 89.73, 3.78 83.4 C-0.79 77.07, -1.8 69.91, 0.2 62.93 C2.19 55.96, 7.49 47.92, 15.76 41.54 C24.02 35.16, 36.22 29.66, 49.78 24.66 C63.35 19.66, 77.64 15.36, 97.15 11.54 C116.66 7.73, 153.45 3.29, 166.85 1.78 C180.25 0.27, 177 1.46, 177.56 2.49 M183.8 -0.74 C203.19 -3.04, 225.98 -1.14, 246.64 0.14 C267.3 1.41, 288.35 4.13, 307.76 6.93 C327.17 9.72, 347.21 12.14, 363.09 16.92 C378.97 21.7, 392.61 29.64, 403.03 35.63 C413.45 41.62, 421.09 46.42, 425.6 52.85 C430.11 59.29, 431.85 67.32, 430.08 74.24 C428.32 81.16, 422.78 88.35, 415.02 94.4 C407.26 100.44, 396.36 105.33, 383.52 110.51 C370.68 115.68, 355.38 121.47, 337.96 125.44 C320.54 129.41, 299.49 132.46, 279.01 134.33 C258.53 136.2, 236.23 136.58, 215.08 136.66 C193.94 136.73, 172.33 136.74, 152.16 134.78 C131.99 132.81, 111.55 128.94, 94.08 124.87 C76.61 120.81, 60.45 115.71, 47.34 110.39 C34.24 105.07, 23.21 99.07, 15.46 92.94 C7.71 86.81, 2.53 80.3, 0.86 73.62 C-0.81 66.93, 0.62 59.33, 5.44 52.83 C10.25 46.33, 19.35 40.52, 29.75 34.6 C40.15 28.68, 52.51 21.91, 67.83 17.33 C83.16 12.75, 102.27 10.07, 121.7 7.12 C141.14 4.17, 173.84 0.69, 184.45 -0.38 C195.07 -1.45, 184.98 -0.76, 185.38 0.7" stroke="#1e1e1e" stroke-width="2" fill="none"></path></g><g stroke-linecap="round"><g transform="translate(472.70423119487873 115.84841363094264) rotate(0 43.52921007872533 -12.740632360681587)"><path d="M0 0 C21.19 -4.94, 44.06 -11.85, 87.06 -25.48 M0 0 C18.91 -5.83, 37.07 -10.44, 87.06 -25.48" stroke="#1e1e1e" stroke-width="2" fill="none"></path></g></g><mask></mask><g transform="translate(567.9739658000238 78.24275027855597) rotate(0 49.949951171875 12.5)"><text x="0" y="17.52" font-family="Virgil, Segoe UI Emoji" font-size="20px" fill="#1e1e1e" text-anchor="start" style="white-space: pre;" direction="ltr" dominant-baseline="alphabetic">Interviews</text></g><g stroke-linecap="round" transform="translate(209.2412030011708 183.54682411496754) rotate(0 311.76034675566274 98.30211808317111)"><path d="M195.31 6.44 C216.07 2, 245.69 0.7, 271.39 -0.1 C297.09 -0.89, 323.77 0.46, 349.5 1.67 C375.23 2.88, 401.54 4.25, 425.77 7.17 C450.01 10.09, 474.12 14.49, 494.9 19.18 C515.69 23.87, 533.93 29.07, 550.46 35.32 C566.99 41.57, 582.88 49.33, 594.1 56.67 C605.33 64.01, 612.99 71.28, 617.79 79.36 C622.58 87.45, 624.47 96.87, 622.88 105.18 C621.29 113.49, 616.2 121.66, 608.26 129.2 C600.33 136.74, 589.04 143.73, 575.27 150.42 C561.5 157.11, 544.47 163.64, 525.65 169.35 C506.83 175.06, 485.08 180.76, 462.37 184.68 C439.66 188.6, 414.38 190.86, 389.39 192.86 C364.4 194.87, 338.22 196.69, 312.42 196.71 C286.61 196.72, 259.45 194.93, 234.54 192.94 C209.62 190.94, 185.6 188.68, 162.92 184.74 C140.24 180.81, 117.54 175.05, 98.46 169.31 C79.38 163.57, 62.14 156.96, 48.45 150.28 C34.76 143.61, 24.33 136.94, 16.33 129.29 C8.33 121.63, 2.18 112.66, 0.44 104.33 C-1.31 96, 1.03 87.3, 5.84 79.3 C10.64 71.31, 18.38 63.68, 29.25 56.37 C40.12 49.05, 54.54 41.73, 71.03 35.41 C87.53 29.1, 104.11 23.55, 128.24 18.5 C152.37 13.44, 197.69 7.25, 215.8 5.11 C233.91 2.97, 235.44 4.19, 236.89 5.66 M321.36 -1.13 C346.05 -2.46, 376 1.76, 400.85 4.39 C425.71 7.03, 448.54 10.41, 470.48 14.66 C492.42 18.92, 514.08 24.4, 532.47 29.94 C550.87 35.48, 567.69 40.78, 580.86 47.9 C594.02 55.02, 604.2 64.77, 611.48 72.66 C618.76 80.56, 623.71 87.26, 624.53 95.3 C625.35 103.33, 622.47 112.92, 616.4 120.87 C610.33 128.83, 599.84 135.67, 588.1 143.03 C576.36 150.38, 563 158.8, 545.96 164.99 C528.91 171.17, 507.2 175.96, 485.85 180.14 C464.49 184.31, 441.94 187.24, 417.81 190.04 C393.69 192.84, 366.96 196.15, 341.12 196.95 C315.28 197.74, 288.37 196.18, 262.78 194.82 C237.18 193.46, 211.6 191.74, 187.54 188.78 C163.47 185.82, 138.89 182.12, 118.39 177.07 C97.89 172.02, 80.28 164.95, 64.55 158.48 C48.81 152.01, 34.16 145.58, 23.99 138.24 C13.83 130.9, 7.3 122.5, 3.56 114.42 C-0.18 106.35, -1.02 98.17, 1.55 89.79 C4.12 81.42, 10.18 71.93, 18.98 64.18 C27.77 56.44, 39.83 49.82, 54.32 43.34 C68.82 36.85, 86.67 30.97, 105.94 25.28 C125.21 19.58, 146.64 12.93, 169.94 9.16 C193.25 5.4, 220.39 4.05, 245.76 2.68 C271.13 1.31, 309.2 1.24, 322.15 0.94 C335.09 0.65, 323.7 -0.64, 323.44 0.91" stroke="#1e1e1e" stroke-width="2" fill="none"></path></g><g stroke-linecap="round"><g transform="translate(683.8079334919685 197.7201998971043) rotate(0 43.52921007872533 -12.740632360681587)"><path d="M0 0 C28.36 -6.81, 53.87 -16.22, 87.06 -25.48 M0 0 C32.93 -10.87, 64.35 -18.78, 87.06 -25.48" stroke="#1e1e1e" stroke-width="2" fill="none"></path></g></g><mask></mask><g transform="translate(775.5275491279544 156.28802628965553) rotate(0 36.87995910644531 12.5)"><text x="0" y="17.52" font-family="Virgil, Segoe UI Emoji" font-size="20px" fill="#1e1e1e" text-anchor="start" style="white-space: pre;" direction="ltr" dominant-baseline="alphabetic">Surveys</text></g><g stroke-linecap="round" transform="translate(459.84291972880624 344.60721228273746) rotate(0 299.84649464893926 142.38337087804848)"><path d="M239.34 3.58 C261.34 -1.15, 288.99 -0.71, 313.8 -0.33 C338.61 0.05, 364.24 2.42, 388.19 5.87 C412.14 9.31, 436.24 14.21, 457.51 20.33 C478.77 26.46, 498.81 33.97, 515.8 42.62 C532.79 51.28, 547.2 61.97, 559.45 72.26 C571.7 82.55, 582.57 93.02, 589.33 104.36 C596.08 115.7, 599.58 128.46, 599.96 140.28 C600.34 152.1, 597.39 163.8, 591.61 175.28 C585.84 186.76, 577.12 198.71, 565.31 209.16 C553.49 219.62, 537.43 229.4, 520.74 238 C504.04 246.6, 485.75 254.27, 465.14 260.76 C444.54 267.25, 420.75 272.86, 397.12 276.94 C373.49 281.02, 348.15 284.21, 323.34 285.24 C298.54 286.26, 272.69 285.42, 248.28 283.1 C223.86 280.77, 199.55 276.24, 176.86 271.3 C154.18 266.36, 131.63 260.59, 112.17 253.46 C92.7 246.34, 74.94 238.08, 60.09 228.56 C45.25 219.04, 32.62 207.47, 23.09 196.34 C13.56 185.21, 6.35 173.43, 2.9 161.8 C-0.55 150.17, -0.2 138.32, 2.39 126.57 C4.99 114.82, 9.87 102.21, 18.46 91.29 C27.06 80.37, 39.58 70.64, 53.98 61.04 C68.37 51.45, 85.82 41.33, 104.82 33.73 C123.83 26.13, 144.24 20.7, 168.02 15.45 C191.79 10.19, 232.74 4.21, 247.47 2.19 C262.19 0.17, 255.38 1.13, 256.37 3.32 M297.59 -0.72 C321.02 -3.46, 348.07 0.34, 371.93 3.55 C395.78 6.75, 418.97 12.71, 440.73 18.5 C462.5 24.3, 483.92 30.76, 502.53 38.31 C521.14 45.86, 538.73 53.85, 552.38 63.8 C566.04 73.75, 576.69 86.76, 584.46 98.01 C592.23 109.26, 597.12 119.82, 599 131.27 C600.88 142.73, 600.28 154.87, 595.75 166.76 C591.21 178.64, 582.28 191.48, 571.81 202.59 C561.34 213.7, 548.36 224.42, 532.92 233.42 C517.49 242.41, 499.14 249.87, 479.19 256.54 C459.23 263.22, 436.28 268.89, 413.18 273.45 C390.07 278.01, 365.06 282.06, 340.54 283.88 C316.02 285.69, 290.95 285.97, 266.03 284.34 C241.11 282.71, 214.61 278.21, 191.02 274.1 C167.43 269.98, 144.41 266.4, 124.5 259.65 C104.6 252.91, 87.41 243.04, 71.59 233.63 C55.76 224.21, 40.41 213.97, 29.55 203.17 C18.69 192.36, 11.49 180.19, 6.41 168.79 C1.33 157.39, -2.36 146.24, -0.93 134.74 C0.5 123.24, 7.42 110.99, 15 99.79 C22.57 88.59, 31.74 77.46, 44.52 67.55 C57.31 57.63, 73.67 48.67, 91.69 40.3 C109.71 31.93, 130.81 23.41, 152.64 17.3 C174.48 11.2, 198.33 6.6, 222.67 3.65 C247.02 0.71, 286.35 -0.14, 298.7 -0.37 C311.04 -0.59, 296.86 -0.06, 296.75 2.29" stroke="#1e1e1e" stroke-width="2" fill="none"></path></g><g stroke-linecap="round"><g transform="translate(372.5893588902969 519.3377186867567) rotate(0 43.52921007872533 -12.740632360681616)"><path d="M0 0 C24.95 -8.72, 51.26 -13.21, 87.06 -25.48 M0 0 C28.38 -7.77, 56.61 -16.8, 87.06 -25.48" stroke="#1e1e1e" stroke-width="2" fill="none"></path></g></g><mask></mask><g transform="translate(279.9530854524927 526.4750335385286) rotate(0 70.27994537353516 25)"><text x="0" y="17.52" font-family="Virgil, Segoe UI Emoji" font-size="20px" fill="#1e1e1e" text-anchor="start" style="white-space: pre;" direction="ltr" dominant-baseline="alphabetic">Experiments +</text><text x="0" y="42.519999999999996" font-family="Virgil, Segoe UI Emoji" font-size="20px" fill="#1e1e1e" text-anchor="start" style="white-space: pre;" direction="ltr" dominant-baseline="alphabetic">Product Data</text></g></svg>