<svg version="1.1" xmlns="http://www.w3.org/2000/svg" viewBox="0 0 1073.0612794884366 715.3183539616845" width="2146.1225589768733" height="1430.636707923369">
  <!-- svg-source:excalidraw -->
  
  <defs>
    <style class="style-fonts">
      @font-face {
        font-family: "Virgil";
        src: url("https://excalidraw.com/Virgil.woff2");
      }
      @font-face {
        font-family: "Cascadia";
        src: url("https://excalidraw.com/Cascadia.woff2");
      }
      @font-face {
        font-family: "Assistant";
        src: url("https://excalidraw.com/Assistant-Regular.woff2");
      }
    </style>
    
  </defs>
  <rect x="0" y="0" width="1073.0612794884366" height="715.3183539616845" fill="#ffffff"></rect><g stroke-linecap="round"><g transform="translate(502.4806418329308 45.40921096293346) rotate(0 -0.09307034797916458 286.6734168104641)"><path d="M-0.22 0.01 C-0.51 95.69, -0.66 477.32, -0.68 573.02 M-1.79 -1.03 C-1.8 94.92, 1.54 478.81, 1.61 574.37" stroke="#1e1e1e" stroke-width="2" fill="none"></path></g><g transform="translate(502.4806418329308 45.40921096293346) rotate(0 -0.09307034797916458 286.6734168104641)"><path d="M8.31 23.51 C5.22 13.04, 1.29 4.45, -0.22 0.01 M8.31 23.51 C5.01 15.46, 1.21 5.45, -0.22 0.01" stroke="#1e1e1e" stroke-width="2" fill="none"></path></g><g transform="translate(502.4806418329308 45.40921096293346) rotate(0 -0.09307034797916458 286.6734168104641)"><path d="M-8.79 23.5 C-5.24 13.06, -2.52 4.48, -0.22 0.01 M-8.79 23.5 C-5.74 15.32, -3.19 5.32, -0.22 0.01" stroke="#1e1e1e" stroke-width="2" fill="none"></path></g><g transform="translate(502.4806418329308 45.40921096293346) rotate(0 -0.09307034797916458 286.6734168104641)"><path d="M-7.06 550.92 C-3.88 558.72, -1.13 568.36, 1.61 574.37 M-7.06 550.92 C-4.35 560.17, -1.76 567.59, 1.61 574.37" stroke="#1e1e1e" stroke-width="2" fill="none"></path></g><g transform="translate(502.4806418329308 45.40921096293346) rotate(0 -0.09307034797916458 286.6734168104641)"><path d="M10.04 550.84 C6.58 558.63, 2.69 568.31, 1.61 574.37 M10.04 550.84 C6.4 560.24, 2.64 567.69, 1.61 574.37" stroke="#1e1e1e" stroke-width="2" fill="none"></path></g></g><mask></mask><g stroke-linecap="round"><g transform="translate(48.29470048461252 301.46855685884304) rotate(0 485.0305359100639 -1.4380218517035246)"><path d="M0.36 0.63 C162.31 0.24, 809.55 -2.71, 970.97 -3.51 M-0.91 -0.08 C161.03 -0.19, 808.52 -1.59, 970.54 -2.12" stroke="#1e1e1e" stroke-width="2" fill="none"></path></g><g transform="translate(48.29470048461252 301.46855685884304) rotate(0 485.0305359100639 -1.4380218517035246)"><path d="M23.82 -8.01 C19.13 -4.21, 11.94 -5.6, 0.36 0.63 M23.82 -8.01 C18.61 -6.01, 14.12 -4.72, 0.36 0.63" stroke="#1e1e1e" stroke-width="2" fill="none"></path></g><g transform="translate(48.29470048461252 301.46855685884304) rotate(0 485.0305359100639 -1.4380218517035246)"><path d="M23.89 9.09 C19.35 8.77, 12.14 3.25, 0.36 0.63 M23.89 9.09 C18.77 7.25, 14.27 4.69, 0.36 0.63" stroke="#1e1e1e" stroke-width="2" fill="none"></path></g><g transform="translate(48.29470048461252 301.46855685884304) rotate(0 485.0305359100639 -1.4380218517035246)"><path d="M947.07 6.49 C953.87 5.99, 958.01 0.44, 970.54 -2.12 M947.07 6.49 C952.52 4.9, 958.57 2.3, 970.54 -2.12" stroke="#1e1e1e" stroke-width="2" fill="none"></path></g><g transform="translate(48.29470048461252 301.46855685884304) rotate(0 485.0305359100639 -1.4380218517035246)"><path d="M947.03 -10.61 C953.68 -6.98, 957.83 -8.41, 970.54 -2.12 M947.03 -10.61 C952.37 -8.36, 958.44 -7.11, 970.54 -2.12" stroke="#1e1e1e" stroke-width="2" fill="none"></path></g></g><mask></mask><g transform="translate(26.3279281626439 248.47029258058524) rotate(0 76.14596557617188 17.5)"><text x="0" y="24.528" font-family="Virgil, Segoe UI Emoji" font-size="28px" fill="#1e1e1e" text-anchor="start" style="white-space: pre;" direction="ltr" dominant-baseline="alphabetic">Big Picture</text></g><g transform="translate(926.6897687024225 243.79919953198544) rotate(0 58.197975158691406 17.5)"><text x="0" y="24.528" font-family="Virgil, Segoe UI Emoji" font-size="28px" fill="#1e1e1e" text-anchor="start" style="white-space: pre;" direction="ltr" dominant-baseline="alphabetic">Detailed</text></g><g transform="translate(530.3989615350793 603.15281683992) rotate(0 32.885986328125 17.5)"><text x="0" y="24.528" font-family="Virgil, Segoe UI Emoji" font-size="28px" fill="#1e1e1e" text-anchor="start" style="white-space: pre;" direction="ltr" dominant-baseline="alphabetic">Fast</text></g><g transform="translate(521.9106802850793 32.85416930672693) rotate(0 28.475982666015625 17.5)"><text x="0" y="24.528" font-family="Virgil, Segoe UI Emoji" font-size="28px" fill="#1e1e1e" text-anchor="start" style="white-space: pre;" direction="ltr" dominant-baseline="alphabetic">Slow</text></g><g transform="translate(173.2688557592271 144.52594963109308) rotate(0 118.79989624023438 12.500000000000014)"><text x="0" y="17.52" font-family="Virgil, Segoe UI Emoji" font-size="20px" fill="#1971c2" text-anchor="start" style="white-space: pre;" direction="ltr" dominant-baseline="alphabetic">Current User Interviews</text></g><g transform="translate(88.43716730042888 89.34588693555884) rotate(0 143.77987670898438 12.5)"><text x="0" y="17.52" font-family="Virgil, Segoe UI Emoji" font-size="20px" fill="#1971c2" text-anchor="start" style="white-space: pre;" direction="ltr" dominant-baseline="alphabetic">Qualitative Market Research</text></g><g transform="translate(316.13376191610973 206.49498540747402) rotate(0 62.07994079589844 12.5)"><text x="0" y="17.52" font-family="Virgil, Segoe UI Emoji" font-size="20px" fill="#1971c2" text-anchor="start" style="white-space: pre;" direction="ltr" dominant-baseline="alphabetic">Exit Surveys</text></g><g transform="translate(357.9690146356652 252.52249221293346) rotate(0 113.22990417480469 12.5)"><text x="0" y="17.52" font-family="Virgil, Segoe UI Emoji" font-size="20px" fill="#1971c2" text-anchor="start" style="white-space: pre;" direction="ltr" dominant-baseline="alphabetic">User Feedback Surveys</text></g><g transform="translate(396.2267355829308 313.85061721293346) rotate(0 184.2498321533203 25)"><text x="0" y="17.52" font-family="Virgil, Segoe UI Emoji" font-size="20px" fill="#1971c2" text-anchor="start" style="white-space: pre;" direction="ltr" dominant-baseline="alphabetic">Ongoing Market Segmentation Surveys</text><text x="0" y="42.519999999999996" font-family="Virgil, Segoe UI Emoji" font-size="20px" fill="#1971c2" text-anchor="start" style="white-space: pre;" direction="ltr" dominant-baseline="alphabetic">(Conjoint/MaxDiff)</text></g><g transform="translate(621.651484635231 465.3501775177888) rotate(0 134.58988952636724 12.5)"><text x="0" y="17.52" font-family="Virgil, Segoe UI Emoji" font-size="20px" fill="#1971c2" text-anchor="start" style="white-space: pre;" direction="ltr" dominant-baseline="alphabetic">Attribution -&gt; LTV Analysis</text></g><g transform="translate(770.3835564367761 534.5873101131918) rotate(0 115.389907836914 25)"><text x="0" y="17.52" font-family="Virgil, Segoe UI Emoji" font-size="20px" fill="#1971c2" text-anchor="start" style="white-space: pre;" direction="ltr" dominant-baseline="alphabetic">Reinforcement Learning </text><text x="0" y="42.519999999999996" font-family="Virgil, Segoe UI Emoji" font-size="20px" fill="#1971c2" text-anchor="start" style="white-space: pre;" direction="ltr" dominant-baseline="alphabetic">From Market Behavior</text></g><g transform="translate(517.3606034252255 396.0182026959473) rotate(0 243.12979125976562 12.5)"><text x="0" y="17.52" font-family="Virgil, Segoe UI Emoji" font-size="20px" fill="#1971c2" text-anchor="start" style="white-space: pre;" direction="ltr" dominant-baseline="alphabetic">Cross-sectional demand (location, vertical, media)</text></g><g stroke-linecap="round" transform="translate(10 10) rotate(0 526.5306397442183 320.45180998438246)"><path d="M0 0 C378.62 2.68, 756.96 1.32, 1053.06 0 M0 0 C358.78 3.96, 717.94 3.76, 1053.06 0 M1053.06 0 C1053.78 198.37, 1054.05 398.02, 1053.06 640.9 M1053.06 0 C1054.58 173.49, 1054.99 347.54, 1053.06 640.9 M1053.06 640.9 C837.32 642.78, 621.63 643.64, 0 640.9 M1053.06 640.9 C712.09 644.38, 371.48 644.24, 0 640.9 M0 640.9 C0.74 508.29, 0.75 375.72, 0 0 M0 640.9 C0.01 503.59, 0.35 365.42, 0 0" stroke="#1e1e1e" stroke-width="2" fill="none"></path></g><g transform="translate(288.42466962169885 670.3183539616845) rotate(0 219.701904296875 17.5)"><text x="0" y="24.528" font-family="Virgil, Segoe UI Emoji" font-size="28px" fill="#1e1e1e" text-anchor="start" style="white-space: pre;" direction="ltr" dominant-baseline="alphabetic">Methods of Seeing Where to Go</text></g></svg>